<svg xmlns="http://www.w3.org/2000/svg" version="1.1" width="450" height="250" viewBox="-50 -50 900 500">
    <polyline points="-20,0 300,0 300,150 0,150 0,300 320,300" stroke="#00f" stroke-width="4" fill="none"/>
    <circle cx="0" cy="0" r="5" stroke="#00f" stroke-width="2" fill="#fff"/>
    <circle cx="100" cy="0" r="5" stroke="#00f" stroke-width="2" fill="#00f"/>
    <circle cx="200" cy="0" r="5" stroke="#00f" stroke-width="2" fill="#00f"/>
    <circle cx="300" cy="0" r="5" stroke="#00f" stroke-width="2" fill="#00f"/>
    <circle cx="300" cy="100" r="5" stroke="#00f" stroke-width="2" fill="#00f"/>
    <circle cx="250" cy="150" r="5" stroke="#00f" stroke-width="2" fill="#00f"/>
    <circle cx="150" cy="150" r="5" stroke="#00f" stroke-width="2" fill="#00f"/>
    <circle cx="50" cy="150" r="5" stroke="#00f" stroke-width="2" fill="#00f"/>
    <circle cx="0" cy="200" r="5" stroke="#00f" stroke-width="2" fill="#00f"/>
    <circle cx="0" cy="300" r="5" stroke="#00f" stroke-width="2" fill="#00f"/>
    <circle cx="100" cy="300" r="5" stroke="#00f" stroke-width="2" fill="#00f"/>
    <circle cx="200" cy="300" r="5" stroke="#00f" stroke-width="2" fill="#00f"/>
    <circle cx="300" cy="300" r="5" stroke="#00f" stroke-width="2" fill="#fff"/>


    <polyline points="820,0 400,0 800,300 800,-20" stroke="#00f" stroke-width="4" fill="none"/>
    <circle cx="800" cy="0" r="5" stroke="#00f" stroke-width="2" fill="#fff"/>
    <circle cx="700" cy="0" r="5" stroke="#00f" stroke-width="2" fill="#00f"/>
    <circle cx="600" cy="0" r="5" stroke="#00f" stroke-width="2" fill="#00f"/>
    <circle cx="500" cy="0" r="5" stroke="#00f" stroke-width="2" fill="#00f"/>
    <circle cx="400" cy="0" r="5" stroke="#00f" stroke-width="2" fill="#00f"/>

    <circle cx="480" cy="60" r="5" stroke="#00f" stroke-width="2" fill="#00f"/>
    <circle cx="560" cy="120" r="5" stroke="#00f" stroke-width="2" fill="#00f"/>
    <circle cx="640" cy="180" r="5" stroke="#00f" stroke-width="2" fill="#00f"/>
    <circle cx="720" cy="240" r="5" stroke="#00f" stroke-width="2" fill="#00f"/>
    
    <circle cx="800" cy="100" r="5" stroke="#00f" stroke-width="2" fill="#00f"/>
    <circle cx="800" cy="200" r="5" stroke="#00f" stroke-width="2" fill="#00f"/>
    <circle cx="800" cy="300" r="5" stroke="#00f" stroke-width="2" fill="#00f"/>
</svg>